<mxfile host="app.diagrams.net" modified="2021-06-30T20:46:22.581Z" agent="5.0 (Macintosh; Intel Mac OS X 10_15_7) AppleWebKit/537.36 (KHTML, like Gecko) Chrome/91.0.4472.114 Safari/537.36" etag="d-TCv2d6RzV8GuiyyeRK" version="14.7.7" type="github">
  <diagram name="Page-1" id="822b0af5-4adb-64df-f703-e8dfc1f81529">
    <mxGraphModel dx="2060" dy="2057" grid="1" gridSize="10" guides="1" tooltips="1" connect="1" arrows="1" fold="1" page="1" pageScale="1" pageWidth="1100" pageHeight="850" background="none" math="0" shadow="0">
      <root>
        <mxCell id="0" />
        <mxCell id="1" parent="0" />
        <mxCell id="FbYdYbnR30jyznYOxVAP-3" value="" style="edgeStyle=orthogonalEdgeStyle;rounded=0;orthogonalLoop=1;jettySize=auto;html=1;" edge="1" parent="1" source="FbYdYbnR30jyznYOxVAP-1" target="FbYdYbnR30jyznYOxVAP-2">
          <mxGeometry relative="1" as="geometry" />
        </mxCell>
        <mxCell id="FbYdYbnR30jyznYOxVAP-6" style="edgeStyle=orthogonalEdgeStyle;rounded=0;orthogonalLoop=1;jettySize=auto;html=1;" edge="1" parent="1" source="FbYdYbnR30jyznYOxVAP-1" target="FbYdYbnR30jyznYOxVAP-4">
          <mxGeometry relative="1" as="geometry" />
        </mxCell>
        <mxCell id="FbYdYbnR30jyznYOxVAP-1" value="IHS" style="outlineConnect=0;fontColor=#232F3E;gradientColor=none;fillColor=#232F3E;strokeColor=none;dashed=0;verticalLabelPosition=bottom;verticalAlign=top;align=center;html=1;fontSize=12;fontStyle=0;aspect=fixed;pointerEvents=1;shape=mxgraph.aws4.traditional_server;" vertex="1" parent="1">
          <mxGeometry x="429" y="-10" width="121.16" height="210" as="geometry" />
        </mxCell>
        <mxCell id="FbYdYbnR30jyznYOxVAP-2" value="&lt;br&gt;" style="outlineConnect=0;fontColor=#232F3E;gradientColor=none;fillColor=#232F3E;strokeColor=none;dashed=0;verticalLabelPosition=bottom;verticalAlign=top;align=center;html=1;fontSize=12;fontStyle=0;aspect=fixed;pointerEvents=1;shape=mxgraph.aws4.traditional_server;" vertex="1" parent="1">
          <mxGeometry x="264" y="270" width="121.16" height="210" as="geometry" />
        </mxCell>
        <mxCell id="FbYdYbnR30jyznYOxVAP-4" value="CCM" style="outlineConnect=0;fontColor=#232F3E;gradientColor=none;fillColor=#232F3E;strokeColor=none;dashed=0;verticalLabelPosition=bottom;verticalAlign=top;align=center;html=1;fontSize=12;fontStyle=0;aspect=fixed;pointerEvents=1;shape=mxgraph.aws4.traditional_server;" vertex="1" parent="1">
          <mxGeometry x="594" y="270" width="121.16" height="210" as="geometry" />
        </mxCell>
      </root>
    </mxGraphModel>
  </diagram>
</mxfile>
